<?xml version="1.0" standalone="no"?>
<!DOCTYPE svg PUBLIC "-//W3C//DTD SVG 20010904//EN"
 "http://www.w3.org/TR/2001/REC-SVG-20010904/DTD/svg10.dtd">
<svg version="1.0" xmlns="http://www.w3.org/2000/svg"
 width="1920.000000pt" height="1080.000000pt" viewBox="0 0 1920.000000 1080.000000"
 preserveAspectRatio="xMidYMid meet">

<g transform="translate(0.000000,1080.000000) scale(0.100000,-0.100000)"
fill="#000000" stroke="none">
<path d="M5460 8060 l0 -960 175 0 175 0 -2 958 -3 957 -172 3 -173 2 0 -960z"/>
<path d="M1190 8810 l0 -180 180 0 180 0 0 180 0 180 -180 0 -180 0 0 -180z"/>
<path d="M3240 8207 c0 -608 2 -719 16 -785 47 -230 183 -328 461 -333 l108
-2 3 156 3 155 -58 7 c-131 13 -166 38 -183 124 -5 30 -10 172 -10 317 l0 264
125 0 125 0 0 150 0 150 -125 0 -125 0 -2 251 -3 250 -168 2 -167 2 0 -708z"/>
<path d="M2366 8414 c-79 -19 -160 -67 -223 -131 -29 -29 -55 -53 -58 -53 -3
0 -5 41 -5 90 l0 90 -165 0 -165 0 0 -655 0 -655 169 0 170 0 3 393 c3 382 4
394 26 449 47 116 152 188 275 188 94 0 149 -16 196 -57 54 -46 87 -104 100
-177 7 -36 11 -208 11 -428 l0 -368 176 0 176 0 -5 443 c-4 365 -7 452 -20
497 -48 165 -132 272 -266 340 -95 48 -274 63 -395 34z"/>
<path d="M4452 8415 c-35 -8 -102 -33 -149 -56 -70 -33 -103 -58 -173 -128
-142 -141 -200 -280 -200 -480 0 -124 18 -208 67 -306 71 -142 161 -233 298
-300 136 -67 298 -89 460 -62 153 26 266 80 386 186 l61 54 -33 26 c-103 81
-210 161 -215 161 -4 0 -22 -14 -41 -30 -18 -17 -60 -43 -91 -59 -207 -104
-452 -42 -541 136 -40 79 -81 73 489 73 l510 0 0 108 c0 208 -60 362 -195 498
-131 133 -284 194 -480 193 -49 0 -118 -7 -153 -14z m233 -286 c133 -24 239
-117 261 -228 l7 -31 -347 0 -346 0 0 25 c0 61 74 156 153 197 45 23 132 46
183 47 17 1 57 -4 89 -10z"/>
<path d="M1200 7755 l0 -655 170 0 170 0 0 655 0 655 -170 0 -170 0 0 -655z"/>
<path d="M6023 7324 c-80 -40 -91 -150 -22 -208 70 -59 189 -16 204 73 17 104
-89 183 -182 135z m108 -21 c16 -9 36 -32 45 -51 48 -101 -87 -192 -167 -113
-23 24 -29 38 -29 74 0 39 5 49 35 76 40 35 73 39 116 14z"/>
<path d="M6037 7283 c-4 -3 -7 -37 -7 -75 0 -54 3 -68 15 -68 10 0 15 10 15
30 0 17 4 30 10 30 5 0 16 -13 25 -30 9 -16 22 -30 31 -30 13 0 12 4 -2 32
-15 28 -15 32 0 40 26 15 20 57 -10 68 -29 11 -68 13 -77 3z m71 -40 c-2 -10
-13 -19 -26 -21 -17 -3 -22 2 -22 17 0 16 6 21 26 21 19 0 25 -5 22 -17z"/>
<path d="M4993 6465 c-132 -24 -256 -72 -353 -138 -191 -129 -328 -323 -387
-546 -23 -84 -26 -116 -26 -256 0 -141 3 -172 27 -260 45 -171 106 -282 225
-408 118 -125 250 -205 411 -249 74 -20 108 -23 260 -23 151 0 187 3 260 23
278 75 477 260 569 530 35 100 58 287 47 376 l-7 56 -450 0 -449 0 0 -95 0
-95 348 0 c404 1 367 15 331 -127 -32 -129 -79 -215 -163 -299 -152 -152 -382
-215 -619 -170 -262 50 -476 257 -548 531 -16 60 -22 112 -22 210 -2 157 14
229 81 365 38 78 61 109 131 180 98 99 184 152 306 189 66 20 102 24 205 24
148 1 216 -15 335 -76 78 -41 196 -144 257 -226 l25 -33 77 56 c42 31 76 59
76 63 0 10 -72 107 -109 146 -118 127 -314 227 -501 257 -87 13 -248 11 -337
-5z"/>
<path d="M1916 6432 c-2 -4 -158 -354 -346 -777 -188 -424 -362 -815 -387
-870 -25 -55 -52 -115 -59 -132 l-14 -33 114 0 114 0 10 28 c6 15 40 95 77
177 36 83 85 194 107 248 l42 97 446 0 447 0 74 -167 c40 -93 94 -215 119
-273 l46 -105 117 -3 c111 -2 117 -2 109 15 -10 19 -461 1034 -597 1343 -42
96 -94 213 -115 260 -21 47 -50 111 -64 143 l-25 57 -105 0 c-58 0 -107 -4
-110 -8z m131 -309 c14 -32 42 -96 63 -143 137 -304 270 -613 267 -616 -2 -3
-164 -3 -359 -2 l-354 3 71 165 c39 91 118 274 176 407 57 133 105 243 107
243 2 0 15 -26 29 -57z"/>
<path d="M3180 5530 l0 -910 105 0 105 0 0 910 0 910 -105 0 -105 0 0 -910z"/>
<path d="M6320 5530 l0 -910 100 0 100 0 0 910 0 910 -100 0 -100 0 0 -910z"/>
<path d="M8345 5530 l0 -910 103 0 103 0 -3 90 c-2 50 -1 90 1 90 2 0 29 -24
60 -53 181 -167 459 -204 685 -90 49 25 94 59 147 112 136 136 189 271 189
480 0 206 -52 343 -180 471 -91 92 -186 144 -296 165 -209 41 -392 -9 -536
-144 l-68 -63 0 381 0 381 -102 0 -103 0 0 -910z m769 175 c116 -31 232 -135
275 -249 57 -154 49 -336 -23 -475 -43 -83 -148 -166 -246 -195 -61 -18 -186
-21 -245 -5 -167 43 -301 198 -327 379 -23 158 17 299 117 409 120 132 280
180 449 136z"/>
<path d="M11270 5530 l0 -910 105 0 105 0 0 910 0 910 -105 0 -105 0 0 -910z"/>
<path d="M7390 5903 c-87 -8 -161 -28 -238 -65 -117 -55 -232 -169 -291 -288
-94 -190 -94 -429 0 -619 76 -153 227 -280 389 -327 98 -28 291 -26 385 3 98
31 171 73 247 143 79 72 127 141 170 247 32 77 33 79 33 248 0 169 -1 171 -33
248 -43 106 -91 175 -170 248 -109 100 -232 151 -392 161 -36 3 -81 3 -100 1z
m152 -187 c115 -27 238 -129 294 -241 79 -163 65 -377 -35 -524 -89 -129 -206
-191 -361 -191 -252 0 -440 208 -440 485 1 318 255 539 542 471z"/>
<path d="M10335 5904 c-11 -2 -47 -9 -80 -16 -79 -14 -205 -73 -282 -132 -35
-26 -63 -50 -63 -53 0 -3 23 -34 51 -70 49 -61 52 -63 73 -49 163 116 217 138
351 144 85 3 109 1 159 -18 74 -28 138 -86 170 -155 26 -53 51 -178 41 -196
-4 -5 -110 -9 -258 -9 -357 0 -474 -25 -582 -122 -73 -67 -107 -144 -107 -247
-1 -143 55 -245 171 -314 86 -51 165 -70 291 -70 190 0 352 67 445 184 17 21
33 38 38 39 4 0 7 -45 7 -100 l0 -100 101 0 101 0 -5 423 c-5 470 -8 493 -74
619 -58 111 -159 190 -286 224 -54 15 -227 27 -262 18z m425 -711 c-1 -41 -36
-156 -61 -204 -37 -68 -124 -153 -193 -187 -148 -74 -347 -58 -438 35 -45 46
-58 79 -58 144 0 114 73 183 221 208 66 11 529 14 529 4z"/>
<path d="M1260 3168 l0 -908 110 0 110 0 0 904 0 905 -110 3 -110 3 0 -907z"/>
<path d="M9670 3165 l0 -910 110 3 110 3 2 400 3 400 503 -1 502 0 0 97 0 98
-505 -3 -505 -2 0 320 0 320 540 0 540 0 0 93 0 92 -650 0 -650 0 0 -910z"/>
<path d="M17890 3165 l0 -910 105 3 105 3 0 904 0 904 -105 3 -105 3 0 -910z"/>
<path d="M14660 3820 l0 -110 115 0 115 0 0 110 0 110 -115 0 -115 0 0 -110z"/>
<path d="M14048 3892 l-98 -3 0 -189 0 -190 -85 0 -85 0 0 -90 0 -90 84 0 85
0 3 -422 c4 -466 7 -486 68 -560 55 -66 104 -82 278 -88 l152 -5 0 93 0 92
-97 0 c-112 0 -149 15 -180 72 -16 30 -18 70 -21 426 l-3 392 150 0 151 0 0
90 0 90 -150 0 -150 0 -2 193 -3 192 -97 -3z"/>
<path d="M8570 3700 l0 -190 -85 0 -85 0 0 -90 0 -90 84 0 85 0 3 -427 c3
-377 6 -433 21 -474 24 -63 69 -113 124 -140 42 -21 66 -24 201 -27 l152 -4 0
91 0 91 -95 0 c-109 0 -145 13 -175 63 -19 30 -20 53 -20 430 l0 397 145 0
145 0 0 90 0 90 -145 0 -145 0 0 190 0 190 -105 0 -105 0 0 -190z"/>
<path d="M2300 3526 c-75 -16 -152 -60 -206 -118 -24 -26 -47 -48 -49 -48 -3
0 -5 34 -5 75 l0 75 -100 0 -100 0 0 -627 0 -628 100 3 100 3 0 362 c1 493 10
547 105 642 68 68 121 89 225 89 70 0 94 -4 130 -23 63 -32 115 -85 142 -145
23 -50 23 -56 26 -488 l3 -438 99 0 100 0 0 368 c0 388 6 469 41 546 27 61 96
131 157 159 68 31 199 30 264 -2 62 -29 105 -74 137 -141 l26 -55 3 -437 3
-438 104 0 105 0 0 418 c0 461 -4 502 -60 612 -94 186 -280 274 -507 241 -118
-17 -199 -57 -281 -140 -50 -50 -66 -61 -73 -50 -5 8 -9 16 -9 19 0 3 -21 27
-47 54 -104 105 -270 148 -433 112z"/>
<path d="M4625 3534 c-76 -11 -127 -25 -182 -50 -67 -31 -164 -103 -195 -145
-12 -16 -25 -29 -30 -29 -4 0 -8 45 -8 100 l0 100 -95 0 -95 0 0 -860 0 -860
100 0 101 0 -3 320 c-2 176 -1 320 1 320 2 0 29 -24 60 -52 115 -107 250 -153
426 -146 180 8 302 64 422 192 120 128 163 236 170 426 6 149 -10 239 -60 345
-79 164 -230 288 -393 323 -61 13 -179 21 -219 16z m119 -184 c210 -34 347
-217 349 -465 1 -155 -35 -256 -126 -352 -186 -197 -523 -163 -677 67 -52 77
-71 140 -77 251 -5 81 -2 109 16 170 39 128 123 232 235 289 93 46 172 58 280
40z"/>
<path d="M5905 3521 c-110 -29 -213 -83 -304 -161 l-23 -20 52 -69 52 -69 57
43 c142 111 297 149 445 110 138 -36 228 -155 238 -315 l3 -45 -285 -6 c-310
-6 -357 -13 -476 -70 -72 -34 -126 -90 -161 -165 -20 -45 -24 -69 -24 -145 0
-82 3 -98 30 -154 71 -144 228 -225 436 -225 92 0 224 33 301 75 58 33 164
126 164 146 0 5 5 9 10 9 6 0 10 -41 10 -102 l0 -103 95 0 95 0 0 425 c0 466
-2 483 -61 607 -55 116 -184 214 -317 242 -81 17 -256 12 -337 -8z m515 -719
c0 -145 -125 -316 -276 -377 -231 -93 -470 7 -468 196 1 67 28 119 83 154 75
49 168 62 459 64 l202 1 0 -38z"/>
<path d="M7365 3525 c-226 -49 -415 -237 -475 -471 -24 -94 -26 -247 -5 -349
32 -152 133 -302 259 -384 106 -69 189 -94 336 -99 191 -6 314 31 442 132 57
46 161 180 155 200 -2 6 -36 29 -77 50 l-74 39 -15 -23 c-172 -260 -491 -304
-695 -97 -98 100 -139 209 -138 366 1 105 28 198 79 273 104 153 251 220 430
196 118 -16 212 -80 280 -190 26 -43 41 -57 52 -53 59 23 151 72 151 81 0 23
-78 138 -129 190 -64 64 -166 118 -266 139 -85 18 -229 18 -310 0z"/>
<path d="M11633 3526 c-154 -30 -301 -132 -394 -274 -103 -157 -134 -370 -84
-567 43 -170 161 -321 308 -394 123 -61 186 -74 342 -69 152 6 233 27 338 90
64 39 201 164 195 179 -2 3 -29 30 -60 58 l-57 52 -48 -48 c-60 -60 -129 -106
-202 -135 -47 -19 -75 -23 -177 -23 -119 0 -121 0 -195 37 -122 61 -224 187
-243 303 -4 22 -9 48 -12 58 -5 16 24 17 515 17 l520 0 7 46 c9 62 -11 211
-40 289 -68 188 -210 321 -395 371 -80 22 -232 26 -318 10z m218 -166 c151
-29 272 -148 313 -306 9 -34 16 -67 16 -73 0 -8 -120 -11 -421 -11 -396 0
-420 1 -415 18 2 9 11 42 20 72 35 126 155 252 270 284 101 29 136 31 217 16z"/>
<path d="M12932 3525 c-141 -31 -248 -110 -304 -223 -30 -60 -33 -75 -32 -152
1 -176 84 -276 271 -324 33 -9 127 -21 209 -26 217 -16 284 -35 327 -92 91
-122 -6 -270 -201 -308 -152 -30 -306 8 -466 114 -46 31 -86 56 -89 56 -6 0
-97 -138 -97 -149 0 -14 86 -74 156 -110 339 -172 779 -90 897 167 30 66 30
226 0 293 -60 131 -194 190 -474 209 -265 17 -349 68 -336 203 17 179 310 246
550 126 34 -17 84 -47 110 -66 26 -20 49 -34 51 -32 15 19 96 152 94 154 -35
31 -137 91 -196 116 -136 56 -329 74 -470 44z"/>
<path d="M16864 3525 c-103 -23 -213 -80 -309 -160 -22 -18 -27 -28 -20 -39 6
-7 29 -39 53 -70 l43 -56 54 44 c109 90 245 134 376 123 177 -15 291 -131 306
-313 l6 -62 -289 -5 c-257 -4 -297 -7 -363 -26 -97 -29 -144 -54 -202 -108
-82 -77 -116 -210 -85 -330 19 -77 50 -127 111 -181 59 -52 114 -79 201 -97
211 -45 434 15 566 152 33 35 62 63 64 63 2 0 4 -45 4 -99 l0 -100 95 -3 95
-3 0 412 c0 457 -5 504 -62 619 -59 119 -184 215 -316 243 -70 15 -252 12
-328 -4z m506 -719 c0 -46 -32 -145 -63 -199 -35 -59 -125 -140 -190 -170
-156 -73 -345 -57 -435 36 -32 33 -62 102 -62 141 0 70 46 143 109 175 75 37
160 47 439 49 l202 2 0 -34z"/>
<path d="M14670 2886 l0 -625 105 -3 105 -3 0 628 0 627 -105 0 -105 0 0 -624z"/>
<path d="M15090 3507 c0 -2 18 -46 41 -98 22 -52 53 -123 68 -159 15 -36 116
-273 225 -527 l198 -462 96 -3 95 -3 15 35 c7 19 57 136 109 260 95 224 125
294 307 721 53 125 96 230 96 233 0 3 -46 6 -103 6 l-103 0 -188 -467 c-104
-258 -195 -484 -202 -503 -6 -19 -16 -33 -21 -31 -4 2 -40 83 -79 180 -39 97
-115 284 -169 416 -54 132 -113 276 -131 320 l-32 80 -111 3 c-61 1 -111 1
-111 -1z"/>
</g>
</svg>
